<svg width="15" height="15" viewBox="0 0 15 15" fill="none" xmlns="http://www.w3.org/2000/svg">
<g clip-path="url(#clip0_33_116)">
<path d="M4.3749 15C4.29265 15.0005 4.21111 14.9847 4.13496 14.9536C4.05881 14.9225 3.98955 14.8767 3.93115 14.8187C3.87257 14.7606 3.82607 14.6915 3.79434 14.6154C3.76261 14.5392 3.74628 14.4575 3.74628 14.375C3.74628 14.2925 3.76261 14.2108 3.79434 14.1346C3.82607 14.0585 3.87257 13.9893 3.93115 13.9312L9.0374 8.825C9.38853 8.47343 9.58575 7.99688 9.58575 7.5C9.58575 7.00312 9.38853 6.52656 9.0374 6.175L3.93115 1.06876C3.81346 0.951068 3.74734 0.791447 3.74734 0.625008C3.74734 0.45857 3.81346 0.298948 3.93115 0.181259C4.04884 0.0635691 4.20846 -0.00254822 4.3749 -0.00254822C4.54134 -0.00254822 4.70096 0.0635691 4.81865 0.181259L9.9249 5.2875C10.2159 5.57779 10.4468 5.92263 10.6044 6.30229C10.7619 6.68195 10.843 7.08895 10.843 7.5C10.843 7.91104 10.7619 8.31805 10.6044 8.69771C10.4468 9.07736 10.2159 9.42221 9.9249 9.7125L4.81865 14.8187C4.76025 14.8767 4.69099 14.9225 4.61484 14.9536C4.53869 14.9847 4.45715 15.0005 4.3749 15Z" fill="#D9D9D9"/>
</g>
<defs>
<clipPath id="clip0_33_116">
<rect width="15" height="15" fill="white"/>
</clipPath>
</defs>
</svg>
