<svg width="20" height="20" viewBox="0 0 20 20" fill="none" xmlns="http://www.w3.org/2000/svg">
<g clip-path="url(#clip0_1_7)">
<path d="M17.3824 12.7759L14.2391 17.905C13.8939 18.4717 13.424 18.9521 12.8651 19.3098C12.3063 19.6675 11.6732 19.893 11.0141 19.9692C10.8404 19.9898 10.6656 20.0001 10.4907 20C9.59527 19.9988 8.72209 19.7208 7.99072 19.2042C7.23493 19.7704 6.30133 20.0472 5.35906 19.9844C4.41679 19.9215 3.52819 19.5233 2.85426 18.8617C2.18033 18.2002 1.76565 17.3191 1.68535 16.3782C1.60506 15.4373 1.86446 14.4987 2.41655 13.7325L1.32072 12.6384C0.8528 12.1704 0.496817 11.6027 0.27943 10.9776C0.0620428 10.3526 -0.0111133 9.68646 0.06544 9.02915C0.141993 8.37183 0.366272 7.74035 0.72148 7.182C1.07669 6.62366 1.55362 6.15291 2.11655 5.80502L6.92239 2.83335C8.22423 1.999 9.75519 1.59448 11.2993 1.67686C12.8433 1.75925 14.3226 2.32438 15.5282 3.29252L16.9107 1.91002C16.9876 1.83043 17.0795 1.76694 17.1812 1.72327C17.2829 1.67959 17.3922 1.6566 17.5029 1.65564C17.6135 1.65468 17.7233 1.67577 17.8257 1.71767C17.9281 1.75957 18.0211 1.82144 18.0994 1.89969C18.1776 1.97793 18.2395 2.07098 18.2814 2.17339C18.3233 2.2758 18.3444 2.38554 18.3434 2.49618C18.3425 2.60683 18.3195 2.71618 18.2758 2.81785C18.2321 2.91952 18.1686 3.01148 18.0891 3.08835L16.7082 4.47002C17.6343 5.63022 18.1932 7.04037 18.3133 8.52001C18.4334 9.99965 18.1093 11.4815 17.3824 12.7759ZM6.72072 18.0392L3.62155 14.9392C3.37937 15.3723 3.28596 15.8729 3.35565 16.3643C3.42535 16.8556 3.6543 17.3105 4.00739 17.6592C4.36357 17.9975 4.81662 18.216 5.30313 18.2842C5.78965 18.3523 6.28529 18.2667 6.72072 18.0392ZM14.9882 5.03918C14.0628 4.10488 12.8447 3.5167 11.5375 3.37305C10.2304 3.2294 8.91359 3.53898 7.80739 4.25002L2.99322 7.22168C2.64409 7.43749 2.3483 7.72949 2.12802 8.07581C1.90773 8.42213 1.76865 8.81381 1.7212 9.2215C1.67374 9.62919 1.71914 10.0423 1.85399 10.43C1.98885 10.8177 2.20965 11.1698 2.49989 11.46L8.57489 17.5359C8.86558 17.8269 9.21848 18.0482 9.60705 18.1832C9.99561 18.3182 10.4097 18.3633 10.8182 18.3152C11.2267 18.267 11.619 18.1269 11.9656 17.9053C12.3121 17.6837 12.6039 17.3865 12.8191 17.0359L15.9482 11.9317C16.5594 10.834 16.7963 9.567 16.6231 8.3226C16.4499 7.07819 15.876 5.9241 14.9882 5.03502V5.03918ZM16.0541 20C15.8781 20.0003 15.7065 19.9449 15.5639 19.8417C15.4214 19.7386 15.3151 19.5929 15.2604 19.4256C15.2058 19.2583 15.2055 19.078 15.2595 18.9106C15.3136 18.7431 15.4194 18.597 15.5616 18.4933C17.0207 17.3963 18.0083 15.7856 18.3241 13.9875C18.3462 13.8793 18.3896 13.7765 18.4519 13.6852C18.5141 13.5939 18.5938 13.5159 18.6865 13.4557C18.7791 13.3955 18.8828 13.3544 18.9915 13.3346C19.1002 13.3149 19.2118 13.3169 19.3197 13.3407C19.4276 13.3645 19.5297 13.4094 19.62 13.473C19.7104 13.5366 19.7872 13.6175 19.846 13.711C19.9048 13.8046 19.9444 13.9088 19.9625 14.0178C19.9806 14.1268 19.9769 14.2383 19.9516 14.3459C19.5432 16.5389 18.3277 18.4992 16.5449 19.84C16.4023 19.944 16.2305 20 16.0541 20ZM0.83322 4.78252C0.679306 4.78183 0.528588 4.73853 0.397779 4.65742C0.26697 4.57631 0.161181 4.46055 0.0921403 4.32299C0.0231 4.18543 -0.00649341 4.03143 0.00664134 3.87808C0.0197761 3.72472 0.0751258 3.578 0.166553 3.45418C1.5257 1.63801 3.5264 0.408619 5.76072 0.016684C5.97731 -0.0275187 6.2026 0.0161304 6.38701 0.138029C6.57142 0.259928 6.69985 0.450091 6.74405 0.666684C6.78826 0.883278 6.74461 1.10856 6.62271 1.29297C6.50081 1.47738 6.31065 1.60581 6.09405 1.65002C4.25903 1.95304 2.61258 2.95471 1.49989 4.44502C1.4227 4.54928 1.32224 4.63409 1.2065 4.69268C1.09076 4.75127 0.962944 4.78203 0.83322 4.78252Z" fill="white"/>
</g>
<defs>
<clipPath id="clip0_1_7">
<rect width="20" height="20" fill="white"/>
</clipPath>
</defs>
</svg>
