<svg width="24" height="24" viewBox="0 0 24 24" fill="none" xmlns="http://www.w3.org/2000/svg">
<g clip-path="url(#clip0_70_55)">
<path d="M23.2709 9.41881C22.3681 7.94054 21.2294 6.62007 19.8999 5.50981L22.6999 2.70981C22.882 2.52121 22.9828 2.26861 22.9806 2.00641C22.9783 1.74422 22.8731 1.4934 22.6877 1.308C22.5023 1.12259 22.2515 1.01742 21.9893 1.01514C21.7271 1.01286 21.4745 1.11366 21.2859 1.29581L18.2409 4.34481C16.3533 3.22364 14.1953 2.63928 11.9999 2.65481C5.80888 2.65481 2.28088 6.89281 0.728883 9.41881C0.249411 10.1943 -0.00456238 11.0881 -0.00456238 11.9998C-0.00456238 12.9116 0.249411 13.8053 0.728883 14.5808C1.63164 16.0591 2.77037 17.3796 4.09988 18.4898L1.29988 21.2898C1.20437 21.3821 1.12819 21.4924 1.07578 21.6144C1.02337 21.7364 0.995787 21.8676 0.994633 22.0004C0.993479 22.1332 1.01878 22.2649 1.06906 22.3878C1.11934 22.5107 1.1936 22.6223 1.28749 22.7162C1.38138 22.8101 1.49303 22.8844 1.61593 22.9346C1.73883 22.9849 1.87051 23.0102 2.00328 23.0091C2.13606 23.0079 2.26728 22.9803 2.38929 22.9279C2.51129 22.8755 2.62164 22.7993 2.71388 22.7038L5.76588 19.6518C7.65115 20.7728 9.80655 21.3582 11.9999 21.3448C18.1909 21.3448 21.7189 17.1068 23.2709 14.5808C23.7504 13.8053 24.0043 12.9116 24.0043 11.9998C24.0043 11.0881 23.7504 10.1943 23.2709 9.41881ZM2.43288 13.5338C2.14802 13.0729 1.99713 12.5417 1.99713 11.9998C1.99713 11.4579 2.14802 10.9268 2.43288 10.4658C3.76688 8.29981 6.78188 4.65481 11.9999 4.65481C13.6602 4.64551 15.2971 5.04565 16.7659 5.81981L14.7529 7.83281C13.7928 7.19542 12.6418 6.90981 11.4951 7.02446C10.3484 7.13911 9.27675 7.64695 8.46189 8.46182C7.64702 9.27668 7.13918 10.3484 7.02453 11.495C6.90988 12.6417 7.19549 13.7927 7.83288 14.7528L5.52288 17.0628C4.29799 16.0725 3.25272 14.8788 2.43288 13.5338ZM14.9999 11.9998C14.9999 12.7955 14.6838 13.5585 14.1212 14.1211C13.5586 14.6837 12.7955 14.9998 11.9999 14.9998C11.5544 14.9981 11.1151 14.8955 10.7149 14.6998L14.6999 10.7148C14.8956 11.115 14.9982 11.5543 14.9999 11.9998ZM8.99988 11.9998C8.99988 11.2042 9.31595 10.4411 9.87856 9.87849C10.4412 9.31588 11.2042 8.99981 11.9999 8.99981C12.4454 9.00154 12.8847 9.1041 13.2849 9.29981L9.29988 13.2848C9.10417 12.8846 9.00161 12.4453 8.99988 11.9998ZM21.5669 13.5338C20.2329 15.6998 17.2179 19.3448 11.9999 19.3448C10.3396 19.3541 8.70265 18.954 7.23388 18.1798L9.24688 16.1668C10.207 16.8042 11.358 17.0898 12.5047 16.9752C13.6513 16.8605 14.723 16.3527 15.5379 15.5378C16.3527 14.7229 16.8606 13.6513 16.9752 12.5046C17.0899 11.3579 16.8043 10.2069 16.1669 9.24681L18.4769 6.93681C19.7018 7.92709 20.747 9.12086 21.5669 10.4658C21.8517 10.9268 22.0026 11.4579 22.0026 11.9998C22.0026 12.5417 21.8517 13.0729 21.5669 13.5338Z" fill="#94A3B8"/>
</g>
<defs>
<clipPath id="clip0_70_55">
<rect width="24" height="24" fill="white"/>
</clipPath>
</defs>
</svg>
