<svg width="20" height="20" viewBox="0 0 20 20" fill="none" xmlns="http://www.w3.org/2000/svg">
<g clip-path="url(#clip0_1_17)">
<path d="M19.7491 1.43185L4.32417 16.8526C4.65764 17.0151 5.0234 17.1005 5.39435 17.1024H8.03608C8.25708 17.1019 8.4691 17.1897 8.6249 17.3465L10.0565 18.7773C10.8329 19.559 11.8889 19.999 12.9906 19.9999C13.4455 19.9995 13.8972 19.9249 14.3281 19.7792C15.8135 19.2922 16.894 18.0045 17.1156 16.457L19.9297 3.09004C20.0641 2.53307 20.0002 1.94674 19.7491 1.43185Z" fill="#138EE9"/>
<path d="M16.934 0.0643036L3.59954 2.87347C1.32115 3.18649 -0.272115 5.28726 0.0409002 7.56565C0.164537 8.46542 0.578936 9.30015 1.22097 9.94254L2.65179 11.3734C2.80818 11.5297 2.89598 11.7418 2.89582 11.963V14.6047C2.89774 14.9757 2.98315 15.3415 3.14567 15.6749L18.568 0.250051C18.0612 0.000982345 17.4838 -0.0646422 16.934 0.0643036Z" fill="#138EE9"/>
</g>
<defs>
<clipPath id="clip0_1_17">
<rect width="20" height="20" fill="white"/>
</clipPath>
</defs>
</svg>
