<svg width="24" height="24" viewBox="0 0 24 24" fill="none" xmlns="http://www.w3.org/2000/svg">
<g clip-path="url(#clip0_1_82)">
<path d="M7.00015 12H17.0001V14H7.00015V12ZM7.00015 18H14.0001V16H7.00015V18ZM22.0001 7.586V24H2.00015V3C2.00015 2.20435 2.31622 1.44129 2.87883 0.87868C3.44144 0.31607 4.2045 0 5.00015 0L14.4141 0L22.0001 7.586ZM15.0001 7H18.5861L15.0001 3.414V7ZM20.0001 22V9H13.0001V2H5.00015C4.73493 2 4.48058 2.10536 4.29304 2.29289C4.10551 2.48043 4.00015 2.73478 4.00015 3V22H20.0001Z" fill="#374957"/>
</g>
<defs>
<clipPath id="clip0_1_82">
<rect width="24" height="24" fill="white"/>
</clipPath>
</defs>
</svg>
